<mxfile host="app.diagrams.net" modified="2024-05-15T21:15:35.819Z" agent="Mozilla/5.0 (Macintosh; Intel Mac OS X 10_15_7) AppleWebKit/537.36 (KHTML, like Gecko) Chrome/124.0.0.0 Safari/537.36" etag="50QH5RLymx1nnjLnswa9" version="24.4.2" type="device" pages="2">
  <diagram name="Architecture-Design-Conception" id="5KNeTFlgyiKqukRmxZtt">
    <mxGraphModel dx="2715" dy="1198" grid="1" gridSize="10" guides="1" tooltips="1" connect="1" arrows="1" fold="1" page="1" pageScale="1" pageWidth="850" pageHeight="1100" math="0" shadow="0">
      <root>
        <mxCell id="0" />
        <mxCell id="1" parent="0" />
        <mxCell id="OrLjtV9YyK5r8CmzNKYZ-30" value="" style="rounded=0;whiteSpace=wrap;html=1;fillColor=#e1d5e7;strokeColor=#9673a6;" vertex="1" parent="1">
          <mxGeometry x="-10" y="790" width="860" height="120" as="geometry" />
        </mxCell>
        <mxCell id="OrLjtV9YyK5r8CmzNKYZ-29" value="" style="rounded=0;whiteSpace=wrap;html=1;fillColor=#dae8fc;strokeColor=#6c8ebf;" vertex="1" parent="1">
          <mxGeometry x="-10" y="500" width="860" height="230" as="geometry" />
        </mxCell>
        <mxCell id="OrLjtV9YyK5r8CmzNKYZ-28" value="" style="rounded=0;whiteSpace=wrap;html=1;fillColor=#d5e8d4;strokeColor=#82b366;" vertex="1" parent="1">
          <mxGeometry x="-10" y="330" width="860" height="110" as="geometry" />
        </mxCell>
        <mxCell id="OrLjtV9YyK5r8CmzNKYZ-27" value="" style="rounded=0;whiteSpace=wrap;html=1;fillColor=#f8cecc;strokeColor=#b85450;" vertex="1" parent="1">
          <mxGeometry x="-10" y="10" width="860" height="260" as="geometry" />
        </mxCell>
        <mxCell id="OrLjtV9YyK5r8CmzNKYZ-1" value="Presentation Layer" style="rounded=0;whiteSpace=wrap;html=1;" vertex="1" parent="1">
          <mxGeometry x="10" y="180" width="120" height="60" as="geometry" />
        </mxCell>
        <mxCell id="OrLjtV9YyK5r8CmzNKYZ-6" style="edgeStyle=orthogonalEdgeStyle;rounded=0;orthogonalLoop=1;jettySize=auto;html=1;exitX=1;exitY=0.5;exitDx=0;exitDy=0;entryX=0;entryY=0.5;entryDx=0;entryDy=0;" edge="1" parent="1" source="OrLjtV9YyK5r8CmzNKYZ-2" target="OrLjtV9YyK5r8CmzNKYZ-3">
          <mxGeometry relative="1" as="geometry" />
        </mxCell>
        <mxCell id="OrLjtV9YyK5r8CmzNKYZ-12" style="edgeStyle=orthogonalEdgeStyle;rounded=0;orthogonalLoop=1;jettySize=auto;html=1;exitX=0.5;exitY=1;exitDx=0;exitDy=0;entryX=0.5;entryY=0;entryDx=0;entryDy=0;" edge="1" parent="1" source="OrLjtV9YyK5r8CmzNKYZ-2" target="OrLjtV9YyK5r8CmzNKYZ-10">
          <mxGeometry relative="1" as="geometry" />
        </mxCell>
        <mxCell id="OrLjtV9YyK5r8CmzNKYZ-2" value="ViewModel" style="rounded=0;whiteSpace=wrap;html=1;" vertex="1" parent="1">
          <mxGeometry x="365" y="180" width="120" height="60" as="geometry" />
        </mxCell>
        <mxCell id="OrLjtV9YyK5r8CmzNKYZ-7" style="edgeStyle=orthogonalEdgeStyle;rounded=0;orthogonalLoop=1;jettySize=auto;html=1;exitX=0;exitY=0.5;exitDx=0;exitDy=0;entryX=1;entryY=0.5;entryDx=0;entryDy=0;" edge="1" parent="1" source="OrLjtV9YyK5r8CmzNKYZ-3" target="OrLjtV9YyK5r8CmzNKYZ-2">
          <mxGeometry relative="1" as="geometry" />
        </mxCell>
        <mxCell id="OrLjtV9YyK5r8CmzNKYZ-8" value="View calls &amp;amp; binding" style="edgeLabel;html=1;align=center;verticalAlign=middle;resizable=0;points=[];" vertex="1" connectable="0" parent="OrLjtV9YyK5r8CmzNKYZ-7">
          <mxGeometry x="0.1158" y="-1" relative="1" as="geometry">
            <mxPoint as="offset" />
          </mxGeometry>
        </mxCell>
        <mxCell id="OrLjtV9YyK5r8CmzNKYZ-3" value="View" style="rounded=0;whiteSpace=wrap;html=1;" vertex="1" parent="1">
          <mxGeometry x="650" y="180" width="120" height="60" as="geometry" />
        </mxCell>
        <mxCell id="OrLjtV9YyK5r8CmzNKYZ-5" style="edgeStyle=orthogonalEdgeStyle;rounded=0;orthogonalLoop=1;jettySize=auto;html=1;exitX=0.5;exitY=1;exitDx=0;exitDy=0;entryX=0.5;entryY=0;entryDx=0;entryDy=0;" edge="1" parent="1" source="OrLjtV9YyK5r8CmzNKYZ-4" target="OrLjtV9YyK5r8CmzNKYZ-2">
          <mxGeometry relative="1" as="geometry" />
        </mxCell>
        <mxCell id="OrLjtV9YyK5r8CmzNKYZ-4" value="Router" style="rounded=0;whiteSpace=wrap;html=1;" vertex="1" parent="1">
          <mxGeometry x="365" y="60" width="120" height="60" as="geometry" />
        </mxCell>
        <mxCell id="OrLjtV9YyK5r8CmzNKYZ-9" value="Domain Layer" style="rounded=0;whiteSpace=wrap;html=1;" vertex="1" parent="1">
          <mxGeometry x="10" y="360" width="120" height="60" as="geometry" />
        </mxCell>
        <mxCell id="OrLjtV9YyK5r8CmzNKYZ-23" style="edgeStyle=orthogonalEdgeStyle;rounded=0;orthogonalLoop=1;jettySize=auto;html=1;exitX=0.5;exitY=1;exitDx=0;exitDy=0;" edge="1" parent="1" source="OrLjtV9YyK5r8CmzNKYZ-10" target="OrLjtV9YyK5r8CmzNKYZ-16">
          <mxGeometry relative="1" as="geometry" />
        </mxCell>
        <mxCell id="OrLjtV9YyK5r8CmzNKYZ-10" value="&amp;lt;&amp;lt;Interface&amp;gt;&amp;gt;&lt;br&gt;UseCaseProtocol" style="rounded=0;whiteSpace=wrap;html=1;" vertex="1" parent="1">
          <mxGeometry x="365" y="360" width="120" height="60" as="geometry" />
        </mxCell>
        <mxCell id="OrLjtV9YyK5r8CmzNKYZ-11" value="UseCase" style="rounded=0;whiteSpace=wrap;html=1;" vertex="1" parent="1">
          <mxGeometry x="590" y="360" width="120" height="60" as="geometry" />
        </mxCell>
        <mxCell id="OrLjtV9YyK5r8CmzNKYZ-14" value="" style="endArrow=block;dashed=1;endFill=0;endSize=12;html=1;rounded=0;exitX=0;exitY=0.5;exitDx=0;exitDy=0;entryX=1;entryY=0.5;entryDx=0;entryDy=0;" edge="1" parent="1" source="OrLjtV9YyK5r8CmzNKYZ-11" target="OrLjtV9YyK5r8CmzNKYZ-10">
          <mxGeometry width="160" relative="1" as="geometry">
            <mxPoint x="340" y="330" as="sourcePoint" />
            <mxPoint x="500" y="330" as="targetPoint" />
          </mxGeometry>
        </mxCell>
        <mxCell id="OrLjtV9YyK5r8CmzNKYZ-15" value="Data Layer" style="rounded=0;whiteSpace=wrap;html=1;" vertex="1" parent="1">
          <mxGeometry x="10" y="570" width="120" height="60" as="geometry" />
        </mxCell>
        <mxCell id="OrLjtV9YyK5r8CmzNKYZ-19" style="edgeStyle=orthogonalEdgeStyle;rounded=0;orthogonalLoop=1;jettySize=auto;html=1;exitX=0.5;exitY=1;exitDx=0;exitDy=0;entryX=0.5;entryY=0;entryDx=0;entryDy=0;" edge="1" parent="1" source="OrLjtV9YyK5r8CmzNKYZ-16" target="OrLjtV9YyK5r8CmzNKYZ-17">
          <mxGeometry relative="1" as="geometry" />
        </mxCell>
        <mxCell id="OrLjtV9YyK5r8CmzNKYZ-20" style="edgeStyle=orthogonalEdgeStyle;rounded=0;orthogonalLoop=1;jettySize=auto;html=1;exitX=0.5;exitY=1;exitDx=0;exitDy=0;entryX=0.5;entryY=0;entryDx=0;entryDy=0;" edge="1" parent="1" source="OrLjtV9YyK5r8CmzNKYZ-16" target="OrLjtV9YyK5r8CmzNKYZ-18">
          <mxGeometry relative="1" as="geometry" />
        </mxCell>
        <mxCell id="OrLjtV9YyK5r8CmzNKYZ-16" value="&amp;lt;&amp;lt;Interface&amp;gt;&amp;gt;&lt;br&gt;RepositoryProtocol" style="rounded=0;whiteSpace=wrap;html=1;" vertex="1" parent="1">
          <mxGeometry x="365" y="540" width="120" height="60" as="geometry" />
        </mxCell>
        <mxCell id="OrLjtV9YyK5r8CmzNKYZ-17" value="&amp;lt;&amp;lt;Interface&amp;gt;&amp;gt;&lt;br&gt;LocalDataSource" style="rounded=0;whiteSpace=wrap;html=1;" vertex="1" parent="1">
          <mxGeometry x="270" y="650" width="120" height="60" as="geometry" />
        </mxCell>
        <mxCell id="OrLjtV9YyK5r8CmzNKYZ-18" value="&amp;lt;&amp;lt;Interface&amp;gt;&amp;gt;&lt;br&gt;RemoteDataSource" style="rounded=0;whiteSpace=wrap;html=1;" vertex="1" parent="1">
          <mxGeometry x="460" y="650" width="120" height="60" as="geometry" />
        </mxCell>
        <mxCell id="OrLjtV9YyK5r8CmzNKYZ-21" value="Repository" style="rounded=0;whiteSpace=wrap;html=1;" vertex="1" parent="1">
          <mxGeometry x="590" y="540" width="120" height="60" as="geometry" />
        </mxCell>
        <mxCell id="OrLjtV9YyK5r8CmzNKYZ-22" value="" style="endArrow=block;dashed=1;endFill=0;endSize=12;html=1;rounded=0;exitX=0;exitY=0.5;exitDx=0;exitDy=0;entryX=1;entryY=0.5;entryDx=0;entryDy=0;" edge="1" parent="1" source="OrLjtV9YyK5r8CmzNKYZ-21" target="OrLjtV9YyK5r8CmzNKYZ-16">
          <mxGeometry width="160" relative="1" as="geometry">
            <mxPoint x="650" y="660" as="sourcePoint" />
            <mxPoint x="810" y="660" as="targetPoint" />
          </mxGeometry>
        </mxCell>
        <mxCell id="OrLjtV9YyK5r8CmzNKYZ-24" value="App independent Layer" style="rounded=0;whiteSpace=wrap;html=1;" vertex="1" parent="1">
          <mxGeometry x="10" y="820" width="120" height="60" as="geometry" />
        </mxCell>
        <mxCell id="OrLjtV9YyK5r8CmzNKYZ-25" value="RemoteWebService" style="rounded=0;whiteSpace=wrap;html=1;" vertex="1" parent="1">
          <mxGeometry x="365" y="820" width="120" height="60" as="geometry" />
        </mxCell>
      </root>
    </mxGraphModel>
  </diagram>
  <diagram id="fsP11D7tusiSbkFAQCk2" name="Folder-Structure">
    <mxGraphModel dx="1026" dy="1759" grid="1" gridSize="10" guides="1" tooltips="1" connect="1" arrows="1" fold="1" page="1" pageScale="1" pageWidth="850" pageHeight="1100" math="0" shadow="0">
      <root>
        <mxCell id="0" />
        <mxCell id="1" parent="0" />
        <mxCell id="P07DTYkO3WoKKMGiseJ4-14" style="edgeStyle=orthogonalEdgeStyle;rounded=0;orthogonalLoop=1;jettySize=auto;html=1;exitX=1;exitY=0.5;exitDx=0;exitDy=0;entryX=0;entryY=0.5;entryDx=0;entryDy=0;" edge="1" parent="1" source="P07DTYkO3WoKKMGiseJ4-1" target="P07DTYkO3WoKKMGiseJ4-2">
          <mxGeometry relative="1" as="geometry" />
        </mxCell>
        <mxCell id="P07DTYkO3WoKKMGiseJ4-15" style="edgeStyle=orthogonalEdgeStyle;rounded=0;orthogonalLoop=1;jettySize=auto;html=1;exitX=1;exitY=0.5;exitDx=0;exitDy=0;entryX=0;entryY=0.5;entryDx=0;entryDy=0;" edge="1" parent="1" source="P07DTYkO3WoKKMGiseJ4-1" target="P07DTYkO3WoKKMGiseJ4-3">
          <mxGeometry relative="1" as="geometry" />
        </mxCell>
        <mxCell id="P07DTYkO3WoKKMGiseJ4-16" style="edgeStyle=orthogonalEdgeStyle;rounded=0;orthogonalLoop=1;jettySize=auto;html=1;exitX=1;exitY=0.5;exitDx=0;exitDy=0;entryX=0;entryY=0.5;entryDx=0;entryDy=0;" edge="1" parent="1" source="P07DTYkO3WoKKMGiseJ4-1" target="P07DTYkO3WoKKMGiseJ4-4">
          <mxGeometry relative="1" as="geometry" />
        </mxCell>
        <mxCell id="P07DTYkO3WoKKMGiseJ4-1" value="Feature #1" style="rounded=0;whiteSpace=wrap;html=1;" vertex="1" parent="1">
          <mxGeometry x="110" y="210" width="120" height="60" as="geometry" />
        </mxCell>
        <mxCell id="P07DTYkO3WoKKMGiseJ4-17" style="edgeStyle=orthogonalEdgeStyle;rounded=0;orthogonalLoop=1;jettySize=auto;html=1;exitX=1;exitY=0.5;exitDx=0;exitDy=0;entryX=0;entryY=0.5;entryDx=0;entryDy=0;" edge="1" parent="1" source="P07DTYkO3WoKKMGiseJ4-2" target="P07DTYkO3WoKKMGiseJ4-6">
          <mxGeometry relative="1" as="geometry" />
        </mxCell>
        <mxCell id="P07DTYkO3WoKKMGiseJ4-19" style="edgeStyle=orthogonalEdgeStyle;rounded=0;orthogonalLoop=1;jettySize=auto;html=1;exitX=1;exitY=0.5;exitDx=0;exitDy=0;entryX=0;entryY=0.5;entryDx=0;entryDy=0;" edge="1" parent="1" source="P07DTYkO3WoKKMGiseJ4-2" target="P07DTYkO3WoKKMGiseJ4-7">
          <mxGeometry relative="1" as="geometry" />
        </mxCell>
        <mxCell id="P07DTYkO3WoKKMGiseJ4-2" value="Data" style="rounded=0;whiteSpace=wrap;html=1;fillColor=#f8cecc;strokeColor=#b85450;" vertex="1" parent="1">
          <mxGeometry x="330" y="30" width="120" height="60" as="geometry" />
        </mxCell>
        <mxCell id="P07DTYkO3WoKKMGiseJ4-18" style="edgeStyle=orthogonalEdgeStyle;rounded=0;orthogonalLoop=1;jettySize=auto;html=1;exitX=1;exitY=0.5;exitDx=0;exitDy=0;entryX=0;entryY=0.5;entryDx=0;entryDy=0;" edge="1" parent="1" source="P07DTYkO3WoKKMGiseJ4-3" target="P07DTYkO3WoKKMGiseJ4-8">
          <mxGeometry relative="1" as="geometry" />
        </mxCell>
        <mxCell id="P07DTYkO3WoKKMGiseJ4-20" style="edgeStyle=orthogonalEdgeStyle;rounded=0;orthogonalLoop=1;jettySize=auto;html=1;exitX=1;exitY=0.5;exitDx=0;exitDy=0;entryX=0;entryY=0.5;entryDx=0;entryDy=0;" edge="1" parent="1" source="P07DTYkO3WoKKMGiseJ4-3" target="P07DTYkO3WoKKMGiseJ4-9">
          <mxGeometry relative="1" as="geometry" />
        </mxCell>
        <mxCell id="P07DTYkO3WoKKMGiseJ4-21" style="edgeStyle=orthogonalEdgeStyle;rounded=0;orthogonalLoop=1;jettySize=auto;html=1;exitX=1;exitY=0.5;exitDx=0;exitDy=0;entryX=0;entryY=0.5;entryDx=0;entryDy=0;" edge="1" parent="1" source="P07DTYkO3WoKKMGiseJ4-3" target="P07DTYkO3WoKKMGiseJ4-10">
          <mxGeometry relative="1" as="geometry" />
        </mxCell>
        <mxCell id="P07DTYkO3WoKKMGiseJ4-3" value="Domain" style="rounded=0;whiteSpace=wrap;html=1;fillColor=#d5e8d4;strokeColor=#82b366;" vertex="1" parent="1">
          <mxGeometry x="330" y="210" width="120" height="60" as="geometry" />
        </mxCell>
        <mxCell id="P07DTYkO3WoKKMGiseJ4-22" style="edgeStyle=orthogonalEdgeStyle;rounded=0;orthogonalLoop=1;jettySize=auto;html=1;exitX=1;exitY=0.5;exitDx=0;exitDy=0;entryX=0;entryY=0.5;entryDx=0;entryDy=0;" edge="1" parent="1" source="P07DTYkO3WoKKMGiseJ4-4" target="P07DTYkO3WoKKMGiseJ4-11">
          <mxGeometry relative="1" as="geometry" />
        </mxCell>
        <mxCell id="P07DTYkO3WoKKMGiseJ4-23" style="edgeStyle=orthogonalEdgeStyle;rounded=0;orthogonalLoop=1;jettySize=auto;html=1;exitX=1;exitY=0.5;exitDx=0;exitDy=0;entryX=0;entryY=0.5;entryDx=0;entryDy=0;" edge="1" parent="1" source="P07DTYkO3WoKKMGiseJ4-4" target="P07DTYkO3WoKKMGiseJ4-12">
          <mxGeometry relative="1" as="geometry" />
        </mxCell>
        <mxCell id="P07DTYkO3WoKKMGiseJ4-4" value="Presentation" style="rounded=0;whiteSpace=wrap;html=1;fillColor=#dae8fc;strokeColor=#6c8ebf;" vertex="1" parent="1">
          <mxGeometry x="330" y="390" width="120" height="60" as="geometry" />
        </mxCell>
        <mxCell id="P07DTYkO3WoKKMGiseJ4-6" value="RemoteService" style="rounded=0;whiteSpace=wrap;html=1;fillColor=#f8cecc;strokeColor=#b85450;" vertex="1" parent="1">
          <mxGeometry x="560" y="-20" width="120" height="60" as="geometry" />
        </mxCell>
        <mxCell id="P07DTYkO3WoKKMGiseJ4-7" value="Repository" style="rounded=0;whiteSpace=wrap;html=1;fillColor=#f8cecc;strokeColor=#b85450;" vertex="1" parent="1">
          <mxGeometry x="560" y="50" width="120" height="60" as="geometry" />
        </mxCell>
        <mxCell id="P07DTYkO3WoKKMGiseJ4-8" value="UseCase" style="rounded=0;whiteSpace=wrap;html=1;fillColor=#d5e8d4;strokeColor=#82b366;" vertex="1" parent="1">
          <mxGeometry x="560" y="140" width="120" height="60" as="geometry" />
        </mxCell>
        <mxCell id="P07DTYkO3WoKKMGiseJ4-9" value="DomainEntities" style="rounded=0;whiteSpace=wrap;html=1;fillColor=#d5e8d4;strokeColor=#82b366;" vertex="1" parent="1">
          <mxGeometry x="560" y="210" width="120" height="60" as="geometry" />
        </mxCell>
        <mxCell id="P07DTYkO3WoKKMGiseJ4-10" value="Interfaces" style="rounded=0;whiteSpace=wrap;html=1;fillColor=#d5e8d4;strokeColor=#82b366;" vertex="1" parent="1">
          <mxGeometry x="560" y="280" width="120" height="60" as="geometry" />
        </mxCell>
        <mxCell id="P07DTYkO3WoKKMGiseJ4-11" value="ViewModel" style="rounded=0;whiteSpace=wrap;html=1;fillColor=#dae8fc;strokeColor=#6c8ebf;" vertex="1" parent="1">
          <mxGeometry x="560" y="370" width="120" height="60" as="geometry" />
        </mxCell>
        <mxCell id="P07DTYkO3WoKKMGiseJ4-12" value="Views" style="rounded=0;whiteSpace=wrap;html=1;fillColor=#dae8fc;strokeColor=#6c8ebf;" vertex="1" parent="1">
          <mxGeometry x="560" y="440" width="120" height="60" as="geometry" />
        </mxCell>
      </root>
    </mxGraphModel>
  </diagram>
</mxfile>
